PathFileType	4	(X/Y/Z)	C:\Users\Basilio\Documents\Thesis Gigler\squatting_fais\c3dfiles\073\SLS_back_pre5\markers_experimental.trc
DataRate	CameraRate	NumFrames	NumMarkers	Units	OrigDataRate	OrigDataStartFrame	OrigNumFrames
200.000000	200.000000	4	61	mm	200.000000	0	1539
Frame#	Time	FHD			LBHD			RBHD			C7			T10			CLAV			LSHO			LUUPA			LMUPA			LDUPA			LLEP			LMEP			LRAD			LUL			LRFIN			RSHO			RUPA1			RMUPA			RDUPA			RLEP			RMEP			RUL			RUFIN			LASI			RASI			USACR			LSACR			RSACR			LTHI1			LTHI2			LTHI3			LTHI4			LLFC			LTIB1			LTIB2			LTIB3			LTIB4			LLMAL			LMMAL			LHEE			LMT1			LMT2			LMT5			RTHI			RTHI2			RTHI3			RTHI4			RLFC			RMFC			RTIB1			RTIB2			RTIB3			RTIB4			RLMAL			RMMAL			RHEE			RMT1			RMT2			RMT5			LMFC			RRAD			
		X1	Y1	Z1	X2	Y2	Z2	X3	Y3	Z3	X4	Y4	Z4	X5	Y5	Z5	X6	Y6	Z6	X7	Y7	Z7	X8	Y8	Z8	X9	Y9	Z9	X10	Y10	Z10	X11	Y11	Z11	X12	Y12	Z12	X13	Y13	Z13	X14	Y14	Z14	X15	Y15	Z15	X16	Y16	Z16	X17	Y17	Z17	X18	Y18	Z18	X19	Y19	Z19	X20	Y20	Z20	X21	Y21	Z21	X22	Y22	Z22	X23	Y23	Z23	X24	Y24	Z24	X25	Y25	Z25	X26	Y26	Z26	X27	Y27	Z27	X28	Y28	Z28	X29	Y29	Z29	X30	Y30	Z30	X31	Y31	Z31	X32	Y32	Z32	X33	Y33	Z33	X34	Y34	Z34	X35	Y35	Z35	X36	Y36	Z36	X37	Y37	Z37	X38	Y38	Z38	X39	Y39	Z39	X40	Y40	Z40	X41	Y41	Z41	X42	Y42	Z42	X43	Y43	Z43	X44	Y44	Z44	X45	Y45	Z45	X46	Y46	Z46	X47	Y47	Z47	X48	Y48	Z48	X49	Y49	Z49	X50	Y50	Z50	X51	Y51	Z51	X52	Y52	Z52	X53	Y53	Z53	X54	Y54	Z54	X55	Y55	Z55	X56	Y56	Z56	X57	Y57	Z57	X58	Y58	Z58	X59	Y59	Z59	X60	Y60	Z60	X61	Y61	Z61	

1	0	-185.3654479980469	1685.958862304688	-749.2596435546876	-319.2440185546876	1653.2431640625	-771.4560546875002	-339.6267395019532	1634.093139648438	-637.5253295898439	-370.0633239746094	1530.945434570313	-701.5000610351564	-419.3876037597657	1197.012939453125	-721.2766113281251	-245.6183776855469	1447.951538085938	-704.1778564453126	-280.7830505371094	1500.696411132813	-844.4904785156252	-197.4083862304688	1430.138793945313	-940.3360595703127	-156.8267211914063	1451.794799804688	-918.9224853515627	-133.6057891845703	1406.238403320313	-952.7944335937502	-28.69709968566895	1386.028930664063	-957.921569824219	-30.41879463195801	1328.275756835938	-916.861267089844	224.5046386718751	1423.031982421875	-833.9104614257815	231.0828704833985	1422.991333007813	-908.693298339844	306.1373901367188	1435.6552734375	-823.4746093750002	-260.4450683593751	1484.474365234375	-558.2218627929689	-166.3870849609375	1374.143676757813	-467.9926757812501	-127.2448120117188	1397.805786132813	-481.8838806152345	-103.2747879028321	1345.853881835938	-464.3139038085939	-11.60352230072022	1329.265014648438	-466.4938964843751	-16.14329528808594	1279.489501953125	-533.5159301757814	245.6471252441407	1383.1689453125	-516.0388793945314	324.2849731445313	1406.798828125	-595.1908569335939	-263.1196899414063	1028.855590820313	-852.8218994140627	-257.1247253417969	1025.140869140625	-602.5455322265626	-441.0530395507814	1095.87109375	-723.3632812500001	-452.5502319335939	1067.32373046875	-751.7637939453126	-457.9602661132814	1065.700805664063	-695.4335327148439	-257.8775634765626	705.4655761718751	-903.4658203125002	-210.6201629638672	636.1127319335939	-886.9993896484377	-170.2093048095703	646.2584838867189	-860.577331542969	-232.9604187011719	580.5013427734376	-877.8865356445315	-239.8910369873047	534.3884277343751	-876.3894653320315	-377.8845825195313	409.0623779296876	-820.4764404296877	-439.808807373047	446.8821411132814	-870.6098632812502	-430.0580444335939	408.241424560547	-850.2564086914065	-500.6602172851564	379.3219299316407	-812.1133422851565	-634.0136718750001	393.5684509277345	-834.090515136719	-601.4302978515626	392.707977294922	-749.5759887695314	-673.5314941406251	445.5491027832032	-789.1372070312502	-625.5905761718751	228.5857238769532	-745.6610107421876	-632.1409912109376	223.8198852539063	-783.1077880859377	-667.6264038085939	250.3739166259766	-834.1299438476565	-353.4530639648438	795.8002929687502	-547.7739868164064	-318.1766357421876	739.9252319335939	-551.4270629882814	-284.8591003417969	741.4448242187501	-551.9224243164064	-344.0083007812501	665.0745849609376	-577.4450073242189	-327.8353576660157	514.5309448242189	-604.3679199218751	-317.6248779296876	513.2157592773439	-735.4668579101564	-286.6208190917969	358.4815368652344	-705.2355346679689	-314.4450073242188	271.3188781738282	-646.4882202148439	-289.0086059570313	273.2004699707032	-687.4405517578126	-307.9823913574219	232.0672302246094	-724.9583740234376	-361.8443908691407	98.46205902099612	-685.9141845703126	-354.8967895507813	128.9290618896485	-769.2649536132815	-431.092742919922	81.2815399169922	-743.6897583007814	-206.8122711181641	55.51244354248048	-759.7461547851564	-206.4065093994141	50.97227478027345	-719.2083740234376	-248.6534729003907	33.96234130859376	-669.9552001953126	nan	nan	nan	nan	nan	nan	
2	0.005	-185.5272979736328	1685.857543945313	-749.2491455078126	-319.3365783691407	1653.224731445313	-771.4963989257815	-339.6631469726563	1634.0986328125	-637.5245971679689	-370.1508789062501	1530.926025390625	-701.5462646484376	-419.4718322753907	1196.999755859375	-721.2758789062501	-245.6575317382813	1447.968994140625	-704.1980590820314	-280.8799743652344	1500.648559570313	-844.5177001953127	-197.5472259521485	1430.113891601563	-940.3608398437502	-156.8790740966797	1451.726806640625	-918.9119262695315	-133.7287902832032	1406.157958984375	-952.7854614257815	-28.82391929626466	1385.931274414063	-957.8856201171877	-30.50046730041505	1328.184448242188	-916.8655395507815	224.4007110595704	1423.056030273438	-833.9790039062502	230.9898834228516	1422.942504882813	-908.6459960937502	306.5480346679688	1435.587890625	-823.8671875000002	-260.5844116210938	1484.483642578125	-558.3060913085939	-166.5489501953125	1374.177001953125	-467.8990783691407	-127.24560546875	1397.737060546875	-482.742645263672	-103.3659057617188	1345.893188476563	-464.283172607422	-11.75412559509278	1329.319702148438	-466.4916076660157	-16.23917198181153	1279.5048828125	-533.4421997070314	245.5449218750001	1383.182495117188	-516.0076904296876	324.1878051757813	1406.807739257813	-595.1401977539064	-263.2727355957032	1028.858764648438	-852.7984008789065	-257.1694335937501	1025.155883789063	-602.4641113281251	-441.1615600585939	1095.826171875	-723.3037109375001	-452.6347045898439	1067.320556640625	-751.6949462890626	-458.0691223144532	1065.694946289063	-695.3724975585939	-257.8782958984376	705.4865112304689	-903.444519042969	-210.6691436767579	636.1264648437501	-886.9624023437502	-170.2364196777344	646.1878051757814	-860.5168457031252	-232.9656982421876	580.5057373046876	-877.8245239257815	-239.9205322265626	534.3782348632814	-876.3457641601565	-377.9220275878907	409.003875732422	-820.357849121094	-439.8350524902345	446.8273925781251	-870.5747070312502	-430.0881347656251	408.1632080078126	-850.2124633789065	-500.6594543457032	379.2332458496094	-812.121032714844	-633.9345703125001	393.3748779296876	-834.1091918945315	-601.4201660156251	392.5805053710939	-749.5285034179689	-673.5177612304689	445.4042053222657	-789.159606933594	-625.5553588867189	228.4266662597657	-745.5828857421876	-632.0485839843751	223.6673889160157	-783.0669555664065	-667.5976562500001	250.1794738769532	-834.1182861328127	-353.4826049804688	795.7866210937502	-547.7803344726564	-318.2094421386719	739.9268798828126	-551.3937377929689	-284.8947753906251	741.4274902343751	-551.8842163085939	-344.0737304687501	665.0642089843751	-577.4197998046876	-327.8347167968751	514.5350952148439	-604.3442993164064	-317.6776428222657	513.2405395507814	-735.4736938476564	-286.6910400390626	358.4268798828126	-705.2320556640626	-314.4534912109376	271.3123474121094	-646.5319213867189	-289.0115661621094	273.1814575195313	-687.4543457031251	-308.0247802734376	232.0670318603516	-724.9652099609376	-361.8446655273438	98.45880889892581	-685.9167480468751	-354.9436645507813	128.8890838623047	-769.2772216796877	-431.0699462890626	81.27822113037111	-743.6829223632814	-206.8087615966797	55.51046752929689	-759.7755126953126	-206.3874206542969	50.96673583984376	-719.2352905273439	-248.677230834961	33.95823669433594	-669.9472656250001	nan	nan	nan	nan	nan	nan	
3	0.01	-185.5714111328125	1685.843872070313	-749.3793945312501	-319.4452819824219	1653.196166992188	-771.5681152343752	-339.7309570312501	1634.140869140625	-637.5863647460939	-370.2442626953126	1530.90966796875	-701.5571899414064	-419.4870910644532	1196.98828125	-721.2214355468751	-245.7194213867188	1447.953491210938	-704.2451171875001	-280.9582519531251	1500.626098632813	-844.507995605469	-197.5716552734376	1430.044067382813	-940.3382568359377	-156.9659118652344	1451.7138671875	-918.9197998046877	-133.8016967773438	1406.098388671875	-952.793151855469	-28.88118553161622	1385.885498046875	-957.8634033203127	-30.59432411193848	1328.141967773438	-916.7800292968752	224.264877319336	1422.98828125	-834.0698242187502	230.9139709472657	1422.90869140625	-908.5805664062502	306.0301208496094	1435.481323242188	-823.221862792969	-260.6442871093751	1484.36572265625	-558.4511718750001	-166.6129150390625	1374.208862304688	-467.968963623047	-127.5101089477539	1397.864135742188	-481.8179626464845	-103.5183029174805	1345.941772460938	-464.2907104492189	-11.86245822906494	1329.376708984375	-466.4431457519532	-16.31515121459961	1279.556640625	-533.4135742187501	245.4322967529297	1383.2490234375	-515.8789672851564	324.1024169921876	1406.8212890625	-594.9970092773439	-263.2914733886719	1028.837158203125	-852.7513427734377	-257.2452087402344	1025.132568359375	-602.4284667968751	-441.2159118652345	1095.799682617188	-723.2265014648439	-452.6343994140626	1067.242431640625	-751.6298217773439	-458.0954589843751	1065.683227539063	-695.3203125000001	-257.8768615722657	705.4558715820314	-903.3743896484377	-210.7069244384766	636.0982055664064	-886.9082031250002	-170.2395935058594	646.2353515625001	-860.3934326171877	-232.9585876464844	580.5053100585939	-877.7837524414065	-239.8687133789063	534.3716430664064	-876.2920532226565	-377.9364318847657	408.976043701172	-820.3613281250002	-439.8641052246095	446.7183532714845	-870.4995117187502	-430.0367126464845	408.1038513183595	-850.1860351562502	-500.6466064453126	379.1810302734376	-812.0753173828127	-633.8920898437501	393.2404785156251	-834.097839355469	-601.4429931640626	392.439422607422	-749.5295410156251	-673.5576171875001	445.2513732910157	-789.1762695312502	-625.4749145507814	228.3199920654297	-745.5874023437501	-632.0089111328126	223.5030059814454	-783.041687011719	-667.4609985351564	250.0091857910157	-834.1032714843752	-353.5116271972657	795.7816162109377	-547.7491455078126	-318.2700195312501	739.9042358398439	-551.3701782226564	-284.9222717285157	741.4127197265626	-551.8637695312501	-344.0750122070313	665.0258789062501	-577.3959350585939	-327.8204650878907	514.5194091796876	-604.3576660156251	-317.7368164062501	513.1943969726564	-735.4169311523439	-286.7000427246094	358.4338073730469	-705.2595214843751	-314.4559631347657	271.2856140136719	-646.5465698242189	-289.0256958007813	273.2041015625001	-687.4958496093751	-308.0447387695313	232.0855865478516	-724.9688720703126	-361.8487243652344	98.44499206542972	-685.9149780273439	-354.9633178710938	128.8836822509766	-769.2429199218752	-431.073699951172	81.26336669921876	-743.6799316406251	-206.807846069336	55.51014709472658	-759.7463378906251	-206.3968811035157	50.99167633056642	-719.2222290039064	-248.6799316406251	33.97703552246094	-669.9424438476564	nan	nan	nan	nan	nan	nan	
4	0.015	-185.7909545898438	1685.7646484375	-749.4360351562501	-319.6081542968751	1653.17578125	-771.5915527343752	-339.8140869140626	1634.154418945313	-637.5994262695314	-370.3282165527344	1530.896728515625	-701.5958251953126	-419.5445556640626	1196.972534179688	-721.1586303710939	-245.8245086669922	1447.972900390625	-704.2214965820314	-281.1093139648438	1500.61328125	-844.5496215820315	-197.7604064941407	1429.974975585938	-940.303161621094	-157.0471801757813	1451.641357421875	-918.960388183594	-133.8832397460938	1406.0146484375	-952.7329101562502	-28.91452217102051	1385.785034179688	-957.8403320312502	-30.68188095092774	1328.11962890625	-916.7478637695315	224.1854400634766	1422.984619140625	-834.0072021484377	230.8424987792969	1422.829711914063	-908.5358886718752	306.4192504882813	1435.389892578125	-823.4879150390627	-260.7504882812501	1484.376586914063	-558.4426879882814	-166.7302703857422	1374.26953125	-467.879119873047	-127.4644546508789	1397.832397460938	-482.7204895019532	-103.6436920166016	1345.970825195313	-464.284393310547	-11.94068622589112	1329.397583007813	-466.3898925781251	-16.44356918334961	1279.56103515625	-533.3701171875001	245.3206176757813	1383.24658203125	-515.7611694335939	324.0099792480469	1406.871459960938	-594.8700561523439	-263.3655395507813	1028.812133789063	-852.677917480469	-257.2807617187501	1025.155029296875	-602.3883056640626	-441.2901306152345	1095.764282226563	-723.2196044921876	-452.7036132812501	1067.235229492188	-751.5570678710939	-458.1670532226564	1065.638916015625	-695.2744750976564	-257.9760742187501	705.4504394531251	-903.306823730469	-210.7164459228516	636.1087036132814	-886.841979980469	-170.303466796875	646.2082519531251	-860.3658447265627	-233.0548400878907	580.4843750000001	-877.7232666015627	-239.9425354003907	534.3673095703126	-876.2226562500002	-377.9302978515626	408.881805419922	-820.3391113281252	-439.8435058593751	446.6394042968751	-870.4729003906252	-429.9645385742189	407.9763183593751	-850.1926879882815	-500.6224670410157	379.0215759277344	-812.1082153320315	-633.8712768554689	393.0605773925782	-834.073913574219	-601.4104614257814	392.3024291992189	-749.5275878906251	-673.5520629882814	445.0962829589845	-789.191589355469	-625.4493408203126	228.1692657470704	-745.5426635742189	-631.8689575195314	223.3506469726563	-783.0163574218752	-667.3663330078126	249.8870849609376	-834.0880126953127	-353.5763549804688	795.7341308593752	-547.7028198242189	-318.3184814453126	739.8875732421876	-551.2855834960939	-284.9702453613282	741.3986816406251	-551.8151245117189	-344.1305541992188	665.0117187500001	-577.3602905273439	-327.8814697265626	514.5062866210939	-604.3813476562501	-317.8141479492188	513.1964111328126	-735.4369506835939	-286.7721862792969	358.4252319335938	-705.3154296875001	-314.4531555175782	271.2901306152344	-646.5222167968751	-289.0486145019532	273.1894836425782	-687.5205688476564	-308.0492858886719	232.0450592041016	-724.9481201171876	-361.8468933105469	98.44218444824222	-685.9260864257814	-354.9633178710938	128.8836364746094	-769.2429809570315	-431.0705871582032	81.24081420898439	-743.6782226562501	-206.8043212890626	55.50807952880861	-759.7758789062501	-206.3969421386719	50.99138641357423	-719.2230834960939	-248.6756134033204	33.97189331054688	-669.9575805664064	nan	nan	nan	nan	nan	nan	
